<svg xmlns="http://www.w3.org/2000/svg" version="1.1" xmlns:xlink="http://www.w3.org/1999/xlink" width="1000" height="1000"><g clip-path="url(#SvgjsClipPath1250)"><rect width="1000" height="1000" fill="#ffffff"></rect><g transform="matrix(22.5,0,0,22.5,50,50)"><svg xmlns="http://www.w3.org/2000/svg" version="1.1" xmlns:xlink="http://www.w3.org/1999/xlink" width="40" height="40"><svg width="40" height="40" viewBox="0 0 40 40" fill="none" xmlns="http://www.w3.org/2000/svg">
<path d="M6.9091 18.5454C7.71242 18.5454 8.36364 19.1966 8.36364 20C8.36364 20.8033 7.71242 21.4545 6.9091 21.4545H5.45455C4.65122 21.4545 4 20.8033 4 20C4 19.1966 4.65122 18.5454 5.45455 18.5454H6.9091Z" fill="#00A63E"></path>
<path d="M5.45459 24.3636V15.6363C5.45459 14.8647 5.7613 14.125 6.30686 13.5794C6.85243 13.0339 7.59215 12.7272 8.36369 12.7272H11.2728C12.0761 12.7272 12.7273 13.3784 12.7273 14.1817C12.7273 14.985 12.0761 15.6363 11.2728 15.6363H8.36369V24.3636H11.2728C12.0761 24.3636 12.7273 25.0148 12.7273 25.8181C12.7273 26.6214 12.0761 27.2727 11.2728 27.2727H8.36369C7.59215 27.2727 6.85243 26.9659 6.30686 26.4204C5.7613 25.8748 5.45459 25.1351 5.45459 24.3636Z" fill="#00A63E"></path>
<path d="M12.7272 12.7272V27.2727H14.1818V12.7272H12.7272ZM17.0909 27.2727C17.0909 28.0442 16.7841 28.784 16.2386 29.3295C15.693 29.8751 14.9533 30.1818 14.1818 30.1818H12.7272C11.9557 30.1818 11.216 29.8751 10.6704 29.3295C10.1248 28.784 9.81812 28.0442 9.81812 27.2727V12.7272C9.81812 11.9557 10.1248 11.216 10.6704 10.6704C11.216 10.1248 11.9557 9.81812 12.7272 9.81812H14.1818C14.9533 9.81812 15.693 10.1248 16.2386 10.6704C16.7841 11.216 17.0909 11.9557 17.0909 12.7272V27.2727Z" fill="#00A63E"></path>
<path d="M24.3635 18.5454C25.1668 18.5454 25.818 19.1966 25.818 20C25.818 20.8033 25.1668 21.4545 24.3635 21.4545H15.6362C14.8329 21.4545 14.1816 20.8033 14.1816 20C14.1816 19.1966 14.8329 18.5454 15.6362 18.5454H24.3635Z" fill="#00A63E"></path>
<path d="M25.818 12.7272V27.2727H27.2726V12.7272H25.818ZM30.1817 27.2727C30.1817 28.0442 29.875 28.784 29.3294 29.3295C28.7838 29.8751 28.0441 30.1818 27.2726 30.1818H25.818C25.0465 30.1818 24.3068 29.8751 23.7612 29.3295C23.2156 28.784 22.9089 28.0442 22.9089 27.2727V12.7272C22.9089 11.9557 23.2156 11.216 23.7612 10.6704C24.3068 10.1248 25.0465 9.81812 25.818 9.81812H27.2726C28.0441 9.81812 28.7838 10.1248 29.3294 10.6704C29.875 11.216 30.1817 11.9557 30.1817 12.7272V27.2727Z" fill="#00A63E"></path>
<path d="M31.6363 24.3636V15.6363H28.7273C27.9239 15.6363 27.2727 14.985 27.2727 14.1817C27.2727 13.3784 27.9239 12.7272 28.7273 12.7272H31.6363L31.9233 12.7414C32.5895 12.8074 33.2157 13.1019 33.6932 13.5794C34.2387 14.125 34.5454 14.8647 34.5454 15.6363V24.3636C34.5454 25.1351 34.2387 25.8748 33.6932 26.4204C33.1476 26.9659 32.4079 27.2727 31.6363 27.2727H28.7273C27.9239 27.2727 27.2727 26.6214 27.2727 25.8181C27.2727 25.0148 27.9239 24.3636 28.7273 24.3636H31.6363Z" fill="#00A63E"></path>
<path d="M34.5456 18.5454C35.3489 18.5454 36.0001 19.1966 36.0001 20C36.0001 20.8033 35.3489 21.4545 34.5456 21.4545H33.091C32.2877 21.4545 31.6365 20.8033 31.6365 20C31.6365 19.1966 32.2877 18.5454 33.091 18.5454H34.5456Z" fill="#00A63E"></path>
</svg></svg></g></g><defs><clipPath id="SvgjsClipPath1250"><rect width="1000" height="1000" x="0" y="0" rx="250" ry="250"></rect></clipPath></defs></svg>