<svg xmlns="http://www.w3.org/2000/svg" version="1.1" xmlns:xlink="http://www.w3.org/1999/xlink" width="40" height="40"><svg width="40" height="40" viewBox="0 0 40 40" fill="none" xmlns="http://www.w3.org/2000/svg">
<rect width="40" height="40" fill="#00A63E"></rect>
<path d="M7.25008 18.5834C8.03248 18.5834 8.66675 19.2176 8.66675 20C8.66675 20.7824 8.03248 21.4167 7.25008 21.4167H5.83341C5.05101 21.4167 4.41675 20.7824 4.41675 20C4.41675 19.2176 5.05101 18.5834 5.83341 18.5834H7.25008Z" fill="white"></path>
<path d="M5.83325 24.25V15.75C5.83325 14.9985 6.13198 14.2781 6.66333 13.7467C7.19468 13.2154 7.91514 12.9166 8.66659 12.9166H11.4999C12.2823 12.9166 12.9166 13.5509 12.9166 14.3333C12.9166 15.1157 12.2823 15.75 11.4999 15.75H8.66659V24.25H11.4999C12.2823 24.25 12.9166 24.8842 12.9166 25.6666C12.9166 26.449 12.2823 27.0833 11.4999 27.0833H8.66659C7.91514 27.0833 7.19468 26.7846 6.66333 26.2532C6.13198 25.7219 5.83325 25.0014 5.83325 24.25Z" fill="white"></path>
<path d="M12.9166 12.9167V27.0834H14.3333V12.9167H12.9166ZM17.1666 27.0834C17.1666 27.8348 16.8679 28.5553 16.3365 29.0866C15.8052 29.618 15.0847 29.9167 14.3333 29.9167H12.9166C12.1651 29.9167 11.4447 29.618 10.9133 29.0866C10.382 28.5553 10.0833 27.8348 10.0833 27.0834V12.9167C10.0833 12.1653 10.382 11.4448 10.9133 10.9135C11.4447 10.3821 12.1651 10.0834 12.9166 10.0834H14.3333C15.0847 10.0834 15.8052 10.3821 16.3365 10.9135C16.8679 11.4448 17.1666 12.1653 17.1666 12.9167V27.0834Z" fill="white"></path>
<path d="M24.2499 18.5834C25.0323 18.5834 25.6666 19.2176 25.6666 20C25.6666 20.7824 25.0323 21.4167 24.2499 21.4167H15.7499C14.9675 21.4167 14.3333 20.7824 14.3333 20C14.3333 19.2176 14.9675 18.5834 15.7499 18.5834H24.2499Z" fill="white"></path>
<path d="M25.6666 12.9167V27.0834H27.0833V12.9167H25.6666ZM29.9166 27.0834C29.9166 27.8348 29.6179 28.5553 29.0865 29.0866C28.5552 29.618 27.8347 29.9167 27.0833 29.9167H25.6666C24.9151 29.9167 24.1947 29.618 23.6633 29.0866C23.132 28.5553 22.8333 27.8348 22.8333 27.0834V12.9167C22.8333 12.1653 23.132 11.4448 23.6633 10.9135C24.1947 10.3821 24.9151 10.0834 25.6666 10.0834H27.0833C27.8347 10.0834 28.5552 10.3821 29.0865 10.9135C29.6179 11.4448 29.9166 12.1653 29.9166 12.9167V27.0834Z" fill="white"></path>
<path d="M31.3333 24.25V15.75H28.4999C27.7175 15.75 27.0833 15.1157 27.0833 14.3333C27.0833 13.5509 27.7175 12.9166 28.4999 12.9166H31.3333L31.6127 12.9305C32.2615 12.9947 32.8714 13.2816 33.3365 13.7467C33.8679 14.2781 34.1666 14.9985 34.1666 15.75V24.25C34.1666 25.0014 33.8679 25.7219 33.3365 26.2532C32.8052 26.7846 32.0847 27.0833 31.3333 27.0833H28.4999C27.7175 27.0833 27.0833 26.449 27.0833 25.6666C27.0833 24.8842 27.7175 24.25 28.4999 24.25H31.3333Z" fill="white"></path>
<path d="M34.1666 18.5834C34.949 18.5834 35.5833 19.2176 35.5833 20C35.5833 20.7824 34.949 21.4167 34.1666 21.4167H32.7499C31.9675 21.4167 31.3333 20.7824 31.3333 20C31.3333 19.2176 31.9675 18.5834 32.7499 18.5834H34.1666Z" fill="white"></path>
</svg><style>@media (prefers-color-scheme: light) { :root { filter: none; } }
@media (prefers-color-scheme: dark) { :root { filter: none; } }
</style></svg>